<?xml version="1.0" encoding="iso-8859-1"?>
<!-- Generator: Adobe Illustrator 16.0.0, SVG Export Plug-In . SVG Version: 6.00 Build 0)  -->
<!DOCTYPE svg PUBLIC "-//W3C//DTD SVG 1.1//EN" "http://www.w3.org/Graphics/SVG/1.1/DTD/svg11.dtd">
<svg xmlns="http://www.w3.org/2000/svg" xmlns:xlink="http://www.w3.org/1999/xlink" version="1.1" id="Capa_1" x="0px" y="0px" width="512px" height="512px" viewBox="0 0 436.507 436.507" style="enable-background:new 0 0 436.507 436.507;" xml:space="preserve">
<g>
	<g>
		<path d="M428.945,169.308l-49.838-37.16c-1.9-2.289-4.32-4.089-7.065-5.268L220.303,13.745c-0.486-0.36-0.984-0.667-1.103-0.709    c-0.555-0.362-1.119-0.707-1.707-0.995c-0.56-0.286-1.134-0.517-1.858-0.785c-0.512-0.194-1.021-0.373-1.539-0.517    c-0.601-0.166-1.204-0.284-2.097-0.436c-0.483-0.082-0.961-0.145-1.473-0.187l-0.769-0.044l-1.176,0.011    c-0.559,0.01-1.123,0.04-1.727,0.113c-0.551,0.066-1.095,0.167-1.874,0.339c-0.543,0.118-1.082,0.254-1.683,0.446    c-0.527,0.173-1.039,0.377-1.845,0.727c-0.478,0.21-0.944,0.425-1.43,0.688c-0.575,0.318-1.129,0.678-1.371,0.866l-0.897,0.569    l-43.148,35.269c-2.076-8.134-9.462-14.17-18.233-14.17H93.422c-10.376,0-18.814,8.438-18.814,18.813v60.744l-67.709,55.34    c-8.031,6.561-9.223,18.436-2.662,26.477c3.591,4.386,8.903,6.904,14.567,6.904c4.323,0,8.544-1.507,11.903-4.247l18.682-15.266    v161.721c0,10.373,8.441,18.814,18.814,18.814c10.376,0,18.813-8.441,18.813-18.814V152.936L209.63,52.722l136.185,101.542    v191.151c0,10.373,8.442,18.814,18.814,18.814c10.377,0,18.814-8.441,18.814-18.814V182.321l23.007,17.152    c3.276,2.441,7.159,3.733,11.239,3.733c5.921,0,11.559-2.83,15.093-7.57C438.982,187.321,437.266,175.51,428.945,169.308z     M424.164,189.213c-1.581,2.124-4.012,3.247-6.474,3.247c-1.675,0-3.363-0.522-4.812-1.596l-40.19-29.963v184.514    c0,4.462-3.606,8.063-8.062,8.063c-4.457,0-8.063-3.602-8.063-8.063V148.873L209.323,39.089L76.267,147.838v197.577    c0,4.462-3.607,8.063-8.063,8.063c-4.454,0-8.063-3.602-8.063-8.063V161.02l-36.233,29.619c-1.501,1.224-3.307,1.817-5.098,1.817    c-2.338,0-4.654-1.01-6.252-2.963c-2.816-3.451-2.305-8.525,1.142-11.347l71.652-58.564V53.742c0-4.457,3.608-8.063,8.062-8.063    h42.957c4.457,0,8.062,3.607,8.062,8.063v17.551l59.56-48.68c0.145-0.118,0.308-0.2,0.457-0.307    c0.247-0.171,0.488-0.35,0.753-0.494c0.221-0.118,0.446-0.215,0.672-0.312c0.252-0.108,0.499-0.221,0.756-0.307    c0.25-0.079,0.502-0.128,0.749-0.181c0.257-0.055,0.512-0.113,0.769-0.145c0.247-0.028,0.493-0.028,0.743-0.034    c0.272-0.005,0.54-0.016,0.816,0c0.231,0.018,0.461,0.065,0.692,0.103c0.281,0.049,0.56,0.091,0.835,0.167    c0.236,0.063,0.462,0.16,0.693,0.247c0.252,0.097,0.504,0.183,0.751,0.307c0.254,0.123,0.491,0.284,0.732,0.441    c0.165,0.108,0.338,0.181,0.499,0.299l152.942,114.031c1.916,0.552,3.531,1.766,4.578,3.412l51.086,38.09    C426.089,180.591,426.824,185.645,424.164,189.213z" fill="#247fbf"/>
		<path d="M101.484,106.399l26.827-21.923v-22.67h-26.827V106.399z M112.235,72.557h5.325v6.821l-5.325,4.354V72.557z" fill="#247fbf"/>
		<path d="M291.979,261.95H280.36v-2.431c0-0.363-0.011-0.72-0.026-1.072c0.2-6.199-2.457-12.203-7.207-16.215l-18.604-15.706    c13.906-13.462,21.91-31.932,21.91-51.573c0-27.404-15.224-52.09-39.743-64.42c-2.236-1.124-4.74-1.714-7.238-1.714    c-2.986,0-5.916,0.827-8.468,2.396c-4.801,2.958-7.661,8.091-7.661,13.729v33.888H195.37l-0.005-33.888    c0-5.638-2.867-10.766-7.662-13.724c-2.546-1.57-5.469-2.402-8.465-2.402c-2.511,0-5.026,0.601-7.252,1.724    c-24.507,12.325-39.725,37.011-39.725,64.416c0,24.3,12.187,46.749,32.216,60.051l-0.005,26.94h-4.425    c-11.224,0.021-20.354,9.165-20.354,20.389v14.21c0,1.443,0.155,2.867,0.462,4.268c-0.313,1.407-0.462,2.83-0.462,4.273    l0.005,14.141c-0.005,1.46,0.149,2.898,0.457,4.316c-0.308,1.407-0.462,2.833-0.457,4.262l-0.005,14.221    c0,1.443,0.155,2.866,0.462,4.269c-0.313,1.396-0.462,2.818-0.462,4.262v14.174c-0.01,5.47,2.113,10.604,5.977,14.457    c3.837,3.842,8.944,5.952,14.417,5.963h4.386v1.402c0,18.272,12.347,33.705,29.139,38.409v1.47h21.454l0.005-1.46    c16.801-4.692,29.153-20.137,29.153-38.414v-1.407h15.753c2.878,0,5.653-0.593,8.19-1.706c2.529,1.119,5.306,1.706,8.184,1.706    h15.638c11.234,0,20.379-9.144,20.379-20.389l0.005-82.416c0-5.438-2.116-10.562-5.974-14.415    C302.551,264.064,297.422,261.95,291.979,261.95z M301.61,364.754c0,5.322-4.321,9.638-9.627,9.638h-15.639    c-3.47,0-6.487-1.857-8.183-4.609c-1.701,2.763-4.721,4.609-8.19,4.609h-21.339c-1.862,0-3.633-0.535-5.165-1.512v13.67    c0,16.062-13.065,29.123-29.116,29.123v-5.376l-0.016,5.376c-16.061,0-29.125-13.07-29.125-29.123v-12.147H160.07    c-0.005,0-0.01,0-0.016,0c-2.569-0.011-4.984-1.008-6.801-2.823c-1.827-1.822-2.827-4.248-2.822-6.825v-14.205    c0-1.532,0.397-2.971,1.038-4.262c-0.646-1.292-1.038-2.724-1.038-4.264l0.005-14.215c0-1.501,0.376-2.939,1.032-4.262    c-0.656-1.319-1.038-2.761-1.032-4.272l-0.005-14.194c0-1.535,0.397-2.972,1.038-4.27c-0.646-1.285-1.038-2.724-1.038-4.262    v-14.21c0-5.308,4.321-9.638,9.628-9.638h15.152l0.005-43.76c-19.68-10.641-32.215-31.465-32.215-53.982    c0-23.315,12.955-44.321,33.806-54.81c1.667-0.842,3.651-0.758,5.236,0.226c1.585,0.979,2.559,2.708,2.559,4.58l0.005,44.64    h39.458v-44.64c0-1.866,0.966-3.595,2.551-4.574c1.591-0.982,3.57-1.062,5.239-0.226c20.861,10.494,33.821,31.497,33.815,54.815    c0,20.851-10.845,40.144-28.073,51.356l28.584,24.138c2.372,2.005,3.61,5.04,3.369,8.115c0.031,0.314,0.047,0.631,0.047,0.956    v15.932c1.739-1.695,4.105-2.755,6.721-2.755h15.648c2.571,0,4.997,1.008,6.817,2.823c1.823,1.815,2.825,4.241,2.825,6.804    V364.754z" fill="#247fbf"/>
		<rect x="277.464" y="283.45" width="13.4" height="80.19" fill="#247fbf"/>
		<path d="M228.796,232.942c-0.006,0-0.021,0.003-0.031,0.003c-0.798,0.221-1.333,0.195-2.011,0.018l-29.583,24.976l7.729,9.167    l19.414-16.4c1.994-1.68,4.908-1.685,6.913-0.01l6.599,5.564c1.213,1.023,1.911,2.53,1.911,4.104v103.276h19.113V259.52    c-0.117-0.499-0.143-0.861-0.101-1.275L228.796,232.942z" fill="#247fbf"/>
		<path d="M209.168,277.194c-0.123,0.067-0.231,0.168-0.359,0.236c0.071,0.109,0.097,0.246,0.154,0.361    c0.276,0.504,0.497,1.024,0.672,1.575c0.071,0.211,0.147,0.419,0.2,0.64c0.188,0.745,0.317,1.519,0.317,2.332l-0.005,14.21    c0,0.72-0.097,1.423-0.241,2.094c-0.05,0.221-0.137,0.41-0.199,0.62c-0.128,0.452-0.276,0.894-0.467,1.307    c-0.035,0.08-0.05,0.163-0.087,0.231c0.037,0.078,0.047,0.163,0.087,0.236c0.199,0.42,0.339,0.861,0.473,1.306    c0.065,0.216,0.144,0.416,0.199,0.637c0.15,0.677,0.242,1.37,0.242,2.095l-0.005,14.221c0,0.702-0.086,1.385-0.231,2.058    c-0.044,0.21-0.124,0.409-0.184,0.607c-0.128,0.463-0.278,0.903-0.478,1.335c-0.037,0.088-0.056,0.179-0.092,0.262    c0.042,0.084,0.056,0.18,0.098,0.268c0.189,0.416,0.333,0.847,0.457,1.286c0.065,0.221,0.145,0.431,0.194,0.651    c0.145,0.672,0.231,1.354,0.231,2.057l0.005,14.205c0,0.725-0.097,1.418-0.241,2.101c-0.05,0.221-0.137,0.419-0.199,0.629    c-0.134,0.452-0.276,0.883-0.462,1.293c-0.04,0.083-0.056,0.167-0.092,0.241c0.037,0.073,0.047,0.162,0.087,0.24    c0.191,0.41,0.333,0.846,0.462,1.287c0.063,0.216,0.149,0.419,0.199,0.64c0.149,0.672,0.241,1.371,0.241,2.09v14.21    c0,0.662-0.07,1.302-0.193,1.933c-0.022,0.114-0.077,0.221-0.108,0.346c-0.118,0.499-0.257,0.997-0.457,1.47    c-0.021,0.052-0.066,0.104-0.092,0.163c-0.473,1.065-1.124,2.052-1.971,2.903c-0.876,0.876-1.897,1.554-3.005,2.031    c-0.021,0.011-0.045,0.026-0.066,0.036c-0.494,0.211-1.01,0.353-1.543,0.473c-0.095,0.021-0.182,0.062-0.273,0.089    c-0.63,0.121-1.273,0.194-1.929,0.194h-14.557v12.153c0,10.126,8.239,18.373,18.368,18.373h0.021    c10.12,0,18.364-8.247,18.364-18.373V266.139l-11.726,9.9C210.431,276.512,209.814,276.88,209.168,277.194z M211.963,386.55    c0,4.2-3.412,7.622-7.627,7.622c-4.2,0-7.617-3.422-7.617-7.616v-1.413h3.806c1.344,0,2.698-0.132,4.263-0.451l0.939-0.242    c0.927-0.23,1.775-0.503,2.302-0.734l0.963-0.367l0.359-0.22c0.908-0.441,1.785-0.936,2.611-1.496V386.55z" fill="#247fbf"/>
		<polygon points="199.402,334.98 199.397,328.922 180.593,328.922 161.188,328.922 161.184,340.906 199.407,340.906   " fill="#247fbf"/>
		<polygon points="199.407,351.656 161.184,351.656 161.184,363.651 180.583,363.641 180.598,363.641 199.407,363.641   " fill="#247fbf"/>
		<polygon points="199.407,283.44 180.593,283.44 161.184,283.44 161.184,295.43 199.402,295.43   " fill="#247fbf"/>
		<polygon points="180.593,318.171 199.402,318.171 199.402,312.182 199.407,306.181 161.184,306.181 161.188,318.171   " fill="#247fbf"/>
		<path d="M185.974,225.624l-0.005,47.066h9.591l-7.307-8.657c-1.654-1.958-2.457-4.451-2.242-7.018    c0.215-2.573,1.415-4.902,3.383-6.562l30.9-26.094c0.513-0.436,1.074-0.805,1.656-1.119c0.2-0.104,0.415-0.163,0.62-0.252    c0.382-0.174,0.761-0.362,1.153-0.482c0.532-0.735,1.239-1.333,2.091-1.732c17.695-8.312,29.124-26.297,29.124-45.814    c0-16.131-7.523-30.927-20.105-40.381v40.386c0,2.967-2.41,5.375-5.375,5.375h-50.209c-2.968,0-5.375-2.409-5.375-5.375    l-0.006-40.381c-12.577,9.457-20.099,24.245-20.099,40.376c0,19.522,11.428,37.502,29.118,45.804    C184.764,221.646,185.974,223.539,185.974,225.624z" fill="#247fbf"/>
	</g>
</g>
<g>
</g>
<g>
</g>
<g>
</g>
<g>
</g>
<g>
</g>
<g>
</g>
<g>
</g>
<g>
</g>
<g>
</g>
<g>
</g>
<g>
</g>
<g>
</g>
<g>
</g>
<g>
</g>
<g>
</g>
</svg>
